<?xml version="1.0" encoding="utf-8"?>
<!-- Generator: Adobe Illustrator 26.0.3, SVG Export Plug-In . SVG Version: 6.00 Build 0)  -->
<svg version="1.0" id="Layer_1" xmlns="http://www.w3.org/2000/svg" xmlns:xlink="http://www.w3.org/1999/xlink" x="0px" y="0px"
	 viewBox="0 0 318 216" style="enable-background:new 0 0 318 216;" xml:space="preserve">
<style type="text/css">
	.st0{clip-path:url(#SVGID_00000000916716788353801410000018073530062275979149_);}
	.st1{fill:#1A1A1A;}
	.st2{fill:#FFFFFF;}
	.st3{fill:#005A9C;}
	.st4{fill:#ED1C2E;}
	.st5{fill:#B38808;}
</style>
<g id="layer1">
	<g id="g1982">
		<g id="g957">
			<g>
				<defs>
					<rect id="SVGID_1_" x="74.1" y="45.1" width="170.9" height="126.9"/>
				</defs>
				<clipPath id="SVGID_00000082331347498476357810000012530320407198750379_">
					<use xlink:href="#SVGID_1_"  style="overflow:visible;"/>
				</clipPath>
				<g style="clip-path:url(#SVGID_00000082331347498476357810000012530320407198750379_);">
					<g id="g959">
						<g id="g965">
							<path id="path967" class="st1" d="M140.6,124.9v0.2c0.1,0.9,0,3,0,5.6c0,2.6-0.3,8.1-0.4,9.1v0.2h0.2
								c0.2-0.1,0.5-0.1,0.7-0.1c0.2,0,0.5,0,0.7,0.1h0.2v-0.2c-0.1-0.8-0.2-5.2-0.2-7s0-3.1,0-3.9c3.5,3.7,7.2,7.7,10.3,11.3l0,0
								h0.5V140c0-0.9-0.1-5.6-0.1-7.7c0-1.6,0.2-5.8,0.3-7v-0.2h-0.2c-0.2,0.1-0.4,0.1-0.6,0.1c-0.2,0-0.5,0-0.7-0.1h-0.2v0.2
								c0.2,3.1,0.2,7,0.2,10.7c-2.6-2.6-7.1-7.5-10.4-11.1l0,0L140.6,124.9z M207.8,124.9c-2.8,0-4.7,1.7-4.7,4.1
								c0,2.6,1.7,3.4,3.4,4.1s3.2,1.2,3.2,3c0.1,1.5-1.1,2.8-2.6,2.9c-0.1,0-0.2,0-0.2,0c-1.4,0-2.6-0.8-3.2-2.1v-0.1h-0.5v0.2
								c0,0.6-0.2,1.2-0.4,1.8v0.1l0.1,0.1c1,0.8,2.2,1.3,3.5,1.2l0,0c3.3,0,5.3-2.2,5.3-4.8c0-2.4-1.7-3.2-3.4-3.9
								s-3.2-1.2-3.2-3.1c0-1.3,1.1-2.4,2.4-2.5c0,0,0.1,0,0.1,0c1.1,0,2.1,0.8,2.4,1.9v0.1h0.5v-0.1c0.1-0.6,0.3-1.2,0.6-1.7
								l0.1-0.1l-0.1-0.1C210,125.2,208.9,124.9,207.8,124.9L207.8,124.9z M245,125.1l-0.3,0.1c-0.5,0.1-1.1,0.1-1.6,0H243v0.1
								c-1.1,2.4-2.4,4.7-3.8,7c-1.4-2.4-2.7-4.7-3.9-7l-0.1-0.1h-0.1c-0.7,0.1-1.5,0.1-2.3,0h-0.3l0.2,0.3c0.9,1.3,4.2,7,5.1,8.5
								c0,2.2,0,4.4-0.2,5.9v0.2h0.2c0.3-0.1,0.7-0.1,1-0.1c0.3,0,0.7,0,1,0.1h0.2v-0.2c-0.1-1.3-0.2-4.1-0.2-6.1
								c0.9-1.8,2.4-4.2,5-8.2L245,125.1z M135.8,125.1l-0.2,0.1c-0.2,0.1-0.4,0.1-0.6,0.1c-0.3,0-0.6,0-0.8-0.1H134v0.2
								c0.1,0.8,0.1,2.8,0.1,6.8c0.1,1.5-0.1,3-0.6,4.4c-0.6,1.6-2.2,2.6-3.9,2.4c-4.6,0-4.5-3.5-4.5-6.4c0-3.1,0.1-5.9,0.2-7.2
								v-0.2h-0.2c-0.3,0.1-0.6,0.1-0.9,0.1c-0.4,0-0.7,0-1.1-0.1h-0.2v0.2c0,1.2,0.1,3.1,0.1,5.4c0,1-0.1,2-0.1,3.3
								c-0.5,2.9,1.5,5.7,4.4,6.1c0.6,0.1,1.1,0.1,1.7,0l0,0c3.8,0,6-2.4,6.1-6.2c0-3,0.2-6.7,0.4-8.7L135.8,125.1z M217.3,125.1
								h-0.2c-0.3,0.1-0.7,0.1-1,0.1c-0.3,0-0.7,0-1-0.1H215v0.2c0.1,1.8,0.2,3.6,0.2,5.4v3.6c0,1.8-0.1,3.6-0.2,5.4v0.3h0.2
								c0.3-0.1,0.7-0.1,1-0.1c0.3,0,0.7,0,1,0.1h0.2v-0.2c-0.1-1.8-0.2-3.6-0.2-5.4v-3.6c0-1.8,0.1-3.6,0.2-5.4V125.1z M88,125.2
								v0.2c0.1,1.8,0.2,3.6,0.2,5.4v3.6c0,1.8-0.1,3.6-0.2,5.4v0.2h0.2c0.7-0.1,1.3-0.1,2,0h0.2v-0.2c-0.1-1.8-0.2-3.6-0.2-5.4
								v-1.8c1.4,0,2.8,0,4.2,0s2.8,0,4.2,0v1.8c0,1.8-0.1,3.6-0.2,5.4v0.2h0.2c0.3-0.1,0.7-0.1,1-0.1c0.3,0,0.7,0,1,0.1h0.2v-0.2
								c-0.1-1.8-0.2-3.6-0.2-5.4v-3.6c0-1.8,0.1-3.6,0.2-5.4v-0.2h-0.2c-0.3,0.1-0.7,0.1-1,0.1c-0.3,0-0.7,0-1-0.1h-0.2v0.2
								c0.1,1.8,0.2,3.6,0.2,5.4v0.6c-1.4,0-2.8,0.1-4.2,0.1s-2.8,0-4.2-0.1v-0.6c0-1.8,0.1-3.6,0.2-5.4v-0.2h-0.2
								c-0.7,0.1-1.3,0.1-2,0L88,125.2z M157.3,125.2v0.2c0.1,1.8,0.2,3.6,0.2,5.4v3.6c0,1.8-0.1,3.6-0.2,5.4v0.2h0.2
								c0.7-0.1,1.3-0.1,2,0h0.2v-0.2c-0.1-1.8-0.2-3.6-0.2-5.4v-3.6c0-1.8,0.1-3.6,0.2-5.4v-0.2h-0.2c-0.7,0.1-1.3,0.1-2,0
								L157.3,125.2z M112.9,125.2h-0.2c-1.2,0.1-2.5,0.1-3.7,0.1s-2.5,0-3.7-0.1h-0.2v0.2c0.1,1.8,0.2,3.6,0.2,5.4v3.6
								c0,1.8-0.1,3.6-0.2,5.4v0.1h0.2c1.3-0.1,2.5-0.1,3.8-0.1c1.3,0,2.5,0,3.8,0.1h0.2v-0.2c0-0.2-0.1-0.4-0.1-0.6
								c0-0.2,0-0.4,0.1-0.6v-0.2h-0.2c-1.8,0.2-3.7,0.3-5.5,0.3c0-0.6,0-1.5,0-3c0-1.8,0-2.4,0-2.9c1.1,0,3.6,0,5,0.2h0.2v-0.2
								c0-0.2-0.1-0.4-0.1-0.6c0-0.2,0-0.4,0.1-0.6v-0.2h-0.2c-1.2,0.1-2.6,0.2-4.9,0.2c0-0.6,0-1.6,0-2.6c0-1,0.1-1.7,0.1-2.5
								c2.6,0,3.6,0.2,5.4,0.3h0.2v-0.2c-0.1-0.4-0.1-0.8,0-1.2L112.9,125.2z M190.1,125.2v0.2c0.1,1.8,0.2,3.6,0.2,5.4v3.6
								c0,1.8-0.1,3.6-0.2,5.4v0.2h0.2c0.3-0.1,0.7-0.1,1-0.1c0.3,0,0.7,0,1,0.1h0.2v-0.2c-0.1-1.8-0.2-3.6-0.2-5.4V133h0.6
								c2,2.2,3.7,4.5,5.4,6.9l0.1,0.1h0.1c0.4-0.1,0.8-0.1,1.2-0.1c0.4,0,0.8,0,1.2,0.1l0.4,0.1l-0.2-0.3c-1.2-1.3-4.4-5.5-5.6-6.9
								c1.6-0.3,4.2-1.4,4.2-4.1c0.1-1.1-0.4-2.1-1.4-2.7c-1-0.5-2-0.8-3.1-0.7c-0.8,0-1.6,0.1-2.4,0.1s-1.6,0-2.4-0.1L190.1,125.2z
								 M85.2,125.2H85c-1.8,0.1-3.6,0.1-5.4,0.1c-1.8,0-3.6,0-5.4-0.1H74l0.1,0.2c0.1,0.2,0.1,0.4,0.1,0.6c0,0.2,0,0.4-0.1,0.6
								l-0.1,0.2h0.2c1.4-0.2,2.9-0.2,4.3-0.2c0,1.4,0.1,2.8,0.1,4.2v3.6c0,1.8-0.1,3.6-0.2,5.4v0.2h0.2c0.3-0.1,0.7-0.1,1-0.1
								c0.3,0,0.7,0,1,0.1h0.2v-0.2c-0.1-1.8-0.2-3.6-0.2-5.4v-3.6c0-1.4,0-2.8,0.1-4.2c1.4,0,2.9,0.1,4.3,0.2h0.2l-0.1-0.2
								c-0.1-0.2-0.1-0.4-0.1-0.6c0-0.2,0-0.4,0.1-0.6L85.2,125.2z M178.8,125.2v0.2c0.1,1.8,0.2,3.6,0.2,5.4v3.6
								c0,1.8-0.1,3.6-0.2,5.4v0.1h0.2c1.3-0.1,2.5-0.1,3.8-0.1s2.5,0,3.8,0.1h0.2v-0.2c0-0.2-0.1-0.4-0.1-0.6c0-0.2,0-0.4,0.1-0.6
								v-0.2h-0.2c-1.8,0.2-3.7,0.3-5.5,0.3c0-0.6,0-1.5,0-3c0-1.8,0-2.4,0-2.9c1.1,0,3.6,0,4.9,0.2h0.2v-0.2c0-0.2,0-0.4,0-0.6
								c0-0.2,0-0.4,0-0.6v-0.2h-0.2c-1.2,0.1-2.6,0.2-4.9,0.2c0-0.6,0-1.6,0-2.6c0-1,0-1.7,0.1-2.5c2.6,0,3.6,0.2,5.4,0.3h0.2v-0.2
								c-0.1-0.4-0.1-0.8,0-1.2v-0.2h-0.2c-1.2,0.1-2.5,0.1-3.7,0.1s-2.5,0-3.7-0.1L178.8,125.2z M231.3,125.2h-0.2
								c-1.8,0.1-3.6,0.1-5.4,0.1s-3.6,0-5.4-0.1h-0.2l0.1,0.2c0.1,0.2,0.1,0.4,0.1,0.6c0,0.2,0,0.4-0.1,0.6l-0.1,0.2h0.2
								c1.4-0.2,2.9-0.2,4.3-0.2c0,1.4,0.1,2.8,0.1,4.2v3.6c0,1.8-0.1,3.6-0.2,5.4v0.2h0.2c0.7-0.1,1.3-0.1,2,0h0.2v-0.2
								c-0.1-1.8-0.2-3.6-0.2-5.4v-3.6c0-1.4,0-2.8,0.1-4.2c1.4,0,2.9,0.1,4.3,0.2h0.2l-0.1-0.2c-0.1-0.2-0.1-0.4-0.1-0.6
								c0-0.2,0-0.4,0.1-0.6L231.3,125.2z M162.6,125.3c2,4.8,4.6,11,5.8,14.5c0.2-0.1,0.4-0.1,0.7-0.1c0.2,0,0.5,0,0.7,0.1
								c1.8-4.8,3.8-9.6,6-14.4c-0.5,0.1-1,0.1-1.5,0c-0.9,2.7-3.2,9-4.8,12.4c-1.8-4.2-3.5-8.7-4.8-12.4
								C164,125.5,163.3,125.5,162.6,125.3L162.6,125.3z M194.3,126.2c1.4,0,3.1,0.5,3.1,2.6c0,2.4-2.2,3-3.9,3.1
								c-0.4,0-0.8,0-1.3-0.1v-1.1c0-1.5,0.1-2.9,0.1-4.4C192.8,126.3,193.4,126.2,194.3,126.2z M74.2,144.1v0.4h170.2v-0.4H74.2z
								 M101.9,148.9c-2.3,5.9-7.2,16.7-10.2,23.1c0.5-0.1,1-0.2,1.4-0.2c0.5,0,0.9,0.1,1.4,0.2c0.8-3,1.8-5.8,3.1-8.6h8.3
								c1.3,2.8,2.5,5.7,3.3,8.7c0.7-0.1,1.4-0.2,2.1-0.2c0.7,0,1.3,0.1,2,0.2c-0.1-0.1-7.4-16.2-9.9-23.1c-0.2,0.1-0.5,0.1-0.7,0.1
								C102.5,149,102.2,149,101.9,148.9L101.9,148.9z M181.2,148.9c-2.3,5.9-7.2,16.7-10.2,23.1c0.5-0.1,1-0.2,1.4-0.2
								c0.5,0,0.9,0.1,1.4,0.2c0.8-3,1.8-5.9,3.1-8.6h8.3c1.3,2.8,2.5,5.7,3.3,8.6c0.7-0.1,1.4-0.2,2.1-0.2c0.7,0,1.3,0.1,1.9,0.2
								c-0.1-0.1-7.4-16.2-9.9-23.1c-0.2,0.1-0.5,0.1-0.7,0.1C181.8,149,181.5,148.9,181.2,148.9z M116.5,149.1
								c0.2,3.5,0.3,4.8,0.3,9.7c0,7.6-0.2,9.9-0.4,13.2c1.9-0.1,2.6-0.1,3.5-0.1s4.9,0.1,5.2,0.1c6.6,0,12.5-3.7,12.5-12.1
								c0.2-3.2-1.2-6.3-3.6-8.3c-3.1-2.4-6.2-2.4-12.1-2.4C120.1,149.2,118.3,149.2,116.5,149.1L116.5,149.1z M206.8,149.1
								c0.2,3.5,0.3,4.8,0.3,9.7c0,7.6-0.2,9.9-0.4,13.2c1.9-0.1,2.6-0.1,3.5-0.1s4.9,0.1,5.2,0.1c6.6,0,12.5-3.7,12.5-12.1
								c0.2-3.2-1.2-6.3-3.6-8.3c-3.1-2.4-6.2-2.4-12.1-2.4C210.4,149.2,208.6,149.2,206.8,149.1L206.8,149.1z M157.7,149.1
								c0.1,1.4,0.3,6.3,0.3,10.8c0,4.3,0,7.8-0.3,12c1.8-0.1,2.6-0.2,5.5-0.2c3.6,0,5,0.1,7.1,0.2c-0.1-0.4-0.1-0.7-0.1-1.1
								c0-0.4,0-0.7,0.1-1.1c-2,0.3-4,0.4-6,0.4c-0.8,0-1.5,0-3.1-0.1c0-10.3,0-12.5,0.3-21c-0.7,0.1-1.4,0.2-2.1,0.2
								C158.8,149.2,158.2,149.2,157.7,149.1L157.7,149.1z M196.8,149.1c0.2,6,0.2,6.3,0.2,11.1c0,6.5-0.1,8.2-0.3,11.8
								c0.6-0.1,1.2-0.2,1.7-0.2c0.7,0,1.3,0.1,2,0.2c-0.1-2.5-0.2-5.1-0.2-11.1c0-3.9,0.1-7.9,0.3-11.8c-0.6,0.1-1.3,0.2-1.9,0.2
								C197.9,149.3,197.3,149.3,196.8,149.1L196.8,149.1z M140.9,149.1c0.2,3.2,0.3,7.7,0.3,11c0,7.2-0.2,9.3-0.4,11.8
								c2.5-0.1,5.1-0.2,7.6-0.2c1.5,0,3.1,0.1,4.6,0.2c-0.1-0.3-0.1-0.7-0.1-1.1c0-0.4,0-0.8,0.1-1.1c-2.9,0.3-5.8,0.4-8.7,0.4
								c0-0.9-0.1-3.4-0.1-5.1c0-1.4,0-2.9,0.1-4.3c0.8,0,1.8-0.1,2.7-0.1c1.7,0,3.4,0.1,5.1,0.3c0-0.4-0.1-0.7-0.1-1
								c0-0.4,0.1-0.8,0.1-1.1c-2.6,0.2-5.2,0.3-7.8,0.2c0-1.8,0-2.1,0-4.3c0-1.9,0-2.5,0.1-3.8c1.4-0.1,2-0.1,3.2-0.1
								c1.8,0,3.5,0.1,5.2,0.4c-0.1-0.3-0.1-0.7-0.1-1c0-0.4,0-0.8,0.1-1.2c-1.7,0.2-3.3,0.2-5,0.2c-2.3,0-4.6,0-6.9-0.2
								L140.9,149.1z M232.5,149.1c0.2,3.2,0.3,7.7,0.3,11c0,7.2-0.2,9.3-0.4,11.8c2.5-0.1,5.1-0.2,7.7-0.2c1.5,0,3.1,0,4.6,0.2
								c-0.1-0.3-0.1-0.7-0.1-1.1c0-0.4,0.1-0.8,0.1-1.1c-2.9,0.3-5.8,0.4-8.7,0.4c0-0.9-0.1-3.4-0.1-5.1c0-1.4,0-2.9,0.1-4.3
								c0.8,0,1.8-0.1,2.7-0.1c1.7,0,3.4,0.1,5.1,0.3c0-0.4-0.1-0.7-0.1-1c0-0.4,0-0.8,0.1-1.1c-2.6,0.2-5.2,0.3-7.8,0.2
								c0-1.8,0-2.1,0-4.3c0-1.9,0-2.5,0.1-3.8c1.4-0.1,2-0.1,3.2-0.1c1.8,0,3.5,0.1,5.2,0.4c-0.1-0.3-0.1-0.7-0.1-1
								c0-0.4,0.1-0.8,0.1-1.2c-1.7,0.2-3.3,0.2-5,0.2C237.2,149.4,234.9,149.4,232.5,149.1L232.5,149.1z M91.9,150.6
								c-1.4,0-2.7,0.7-3.5,1.8c-1.2,1.5-2,3.3-2.4,5.2h-1.8c-0.3,0.2-0.3,0.5-0.2,0.8c0,0,0,0,0,0h1.8c-1,3.5-1.8,7.3-2.8,10.7
								c-0.5,1.7-1,1.8-1.4,1.8c-0.6-0.1-1.2-0.4-1.6-0.9c-0.1-0.2-0.3-0.2-0.5-0.1c0,0,0,0,0,0c-0.3,0.2-0.5,0.6-0.5,1
								c0,0.3,0.4,1.1,1.6,1.1c1-0.1,1.9-0.5,2.6-1.2c0.8-1,1.4-2.2,1.7-3.5c0.7-2.4,1.3-4.5,1.9-6.9c0.3-0.9,0.4-1.6,0.6-2h2.7
								c0.3-0.2,0.4-0.5,0.2-0.8c0,0,0,0,0,0h-2.7c0.4-1.8,1.1-3.5,2-5.1c0.3-0.6,0.9-1,1.6-1.2c0.5,0,1.2,0.4,1.2,1.6
								c0,0.1,0.1,0.4,0.3,0.4c0.4,0,0.9-0.7,0.9-1.2C93.5,151.3,92.8,150.6,91.9,150.6L91.9,150.6z M122.9,150.6
								c2.6,0,5.4,0,7.8,1.8c2.8,2.1,3.3,5.4,3.3,7.9c0,2.6-0.6,6.4-3.7,8.6c-2.2,1.6-5.4,1.6-6.8,1.6c-1.2,0-2.4,0-3.5-0.2
								c-0.1-3.3-0.1-4-0.1-10c0-3,0-6.4,0.2-9.4C121,150.7,122,150.6,122.9,150.6z M213.3,150.6c2.6,0,5.4,0,7.8,1.8
								c2.8,2.1,3.3,5.4,3.3,7.9c0,2.6-0.6,6.4-3.7,8.6c-2.2,1.6-5.4,1.6-6.8,1.6c-1.2,0-2.4,0-3.5-0.2c-0.1-3.3-0.1-4-0.1-10
								c0-3,0-6.4,0.2-9.4C211.3,150.7,212.3,150.6,213.3,150.6L213.3,150.6z M101.7,153.4l3.6,8.2h-7L101.7,153.4z M181.1,153.4
								l3.6,8.2h-7L181.1,153.4z M80,157.3c-1.1,0-2.2,0.6-3,1.4c-1.3,1.3-2.1,3-2.4,4.9c-0.1,1.9,0.8,2.9,2.2,2.9
								c1.2,0,2.3-0.6,3.1-1.5c1.3-1.3,2.1-3.1,2.3-4.9C82.3,158.4,81.5,157.3,80,157.3z M79.8,157.9c0.8,0,0.9,0.8,0.9,1.4
								c-0.3,1.9-1,3.7-2,5.3c-0.7,0.9-1.2,1.1-1.7,1.1s-0.9-0.6-0.9-1.4c0.3-1.9,1-3.8,2.1-5.4C78.9,158.1,79.4,158,79.8,157.9
								L79.8,157.9z"/>
						</g>
					</g>
				</g>
			</g>
		</g>
		<g id="g1067">
			<path id="path1069" class="st2" d="M159.2,104c-15.2-6.6-23-18.5-23.1-35.4h46.2C182.3,85.5,174.5,97.4,159.2,104"/>
		</g>
		<g id="g1071">
			<path id="path1073" d="M173.1,72.7h-1.4v-1.8h-2v-1.8l-0.9,0.3c-1.5,0.6-3.1,0.9-4.7,0.8c-2.9,0-4.3,0.7-4.9,1.2
				c-0.6-0.5-1.9-1.2-4.8-1.2c-1.6,0.1-3.2-0.2-4.8-0.8l-0.9-0.3v1.8h-2v1.8h-1.9v18.9h12.7h0.1c0,0.9,0.7,1.6,1.5,1.6
				s1.6-0.7,1.6-1.5l0.2-0.1h12.7V72.7H173.1"/>
		</g>
		<g id="g1075">
			<path id="path1077" class="st3" d="M182.4,47.3v20.2h-46.3V47.3H182.4"/>
		</g>
		<g id="g1079">
			<path id="path1081" d="M184.6,45.1h-50.8v23.2c0,18.2,8.4,31,25,38l0.4,0.2l0.4-0.2c16.6-7,24.9-19.8,24.9-38L184.6,45.1z
				 M182.4,47.3v20.2h-46.3V47.3H182.4z M159.2,104c-15.2-6.6-23-18.5-23.1-35.4h46.2C182.3,85.5,174.5,97.4,159.2,104"/>
		</g>
		<g id="g1083">
			<path id="path1085" class="st4" d="M190,93.5c-5.9,1.3-10.8,3.5-13.9,6.2v0.1H176l2.2,4.8c-4.3,2.1-10.3,3.7-18.3,3.7h-0.3
				c-8.1,0-14.2-1.6-18.4-3.7l2-4.6l0.1-0.2c-3-2.7-7.9-4.9-13.9-6.2v7.6c2.8,0.9,4.7,1.7,6.2,3.1l-0.7,1.4l-1.4,2.8l0,0l-0.3,0.5
				c5,4.5,15,7.6,26.3,7.6h0.3c11.4,0,21.3-3.2,26.3-7.6l-2.4-4.8c1.6-1.4,3.4-2.1,6.2-3.1L190,93.5"/>
		</g>
		<g id="g1087">
			<path id="path1089" class="st2" d="M181.2,105.6l-0.7,0.4l0.3,0.5c0.2,0.3,0.5,0.8,0.9,1.4l-1.8-1.6l-0.8,0.4l1.9,3.2l0.7-0.4
				l-0.3-0.5c-0.3-0.5-0.6-1-0.9-1.4l1.8,1.7l0.8-0.4L181.2,105.6z M138.2,106c-0.4,0-0.8,0.2-1,0.6c-0.1,0.2-0.2,0.4-0.1,0.7
				c0.1,0.3,0.2,0.6,0.3,0.8c0.1,0.3,0.3,0.5,0.1,0.7c-0.1,0.2-0.2,0.2-0.4,0.2c0,0,0,0-0.1,0c-0.2-0.1-0.2-0.3,0-0.6v-0.1l-0.7-0.4
				c0,0.1-0.1,0.1-0.1,0.2c-0.3,0.4-0.2,1.1,0.2,1.4c0.1,0.1,0.2,0.1,0.2,0.1c0.5,0.3,1.1,0.2,1.4-0.3c0.1-0.1,0.1-0.2,0.1-0.3
				c0.1-0.2,0.2-0.4,0.2-0.6c-0.1-0.3-0.2-0.6-0.3-0.8c-0.2-0.3-0.3-0.5-0.2-0.8c0.1-0.1,0.2-0.2,0.4-0.2c0,0,0,0,0,0
				c0.2,0.1,0.2,0.3,0,0.6l0,0l0.7,0.4c0,0,0-0.1,0-0.1c0.3-0.5,0.1-1.1-0.3-1.4c0,0-0.1-0.1-0.1-0.1
				C138.4,106,138.3,105.9,138.2,106L138.2,106z M140.4,107.1l-0.7,1.8c-0.2,0.4-0.3,0.8-0.4,1.3c0.1,0.4,0.4,0.7,0.7,0.8
				c0.4,0.2,0.8,0.2,1.1-0.1c0.2-0.2,0.4-0.5,0.5-0.8c0-0.1,0.1-0.2,0.1-0.3l0.8-1.9l-0.8-0.3l-0.9,2.1l0,0
				c-0.2,0.4-0.3,0.7-0.6,0.6c-0.3-0.1-0.2-0.4,0-0.8l0.9-2.2L140.4,107.1z M178.5,107.2l-1.8,0.8l1.4,3.4l1.9-0.8l-0.3-0.7l-1,0.4
				l-0.3-0.7l1-0.4l-0.3-0.7l-1,0.4l-0.3-0.6l1-0.4L178.5,107.2z M143.5,108.3l-1.1,3.5l1,0.3c0.3,0.1,0.7,0.1,1,0
				c0.3-0.2,0.5-0.4,0.6-0.7c0.1-0.3,0.1-0.8-0.2-1c0.3-0.1,0.5-0.3,0.6-0.6c0.1-0.3,0-0.6-0.2-0.9c-0.2-0.2-0.5-0.3-0.8-0.4
				L143.5,108.3z M175.7,108.3l-1.1,0.3l0.1,1.6c0,0.1,0,0.3,0.1,0.9c-0.2-0.5-0.3-0.7-0.4-0.8l-0.8-1.4l-1.2,0.3l1.1,3.5l0.8-0.2
				l-0.9-2.7l1.4,2.6l0.6-0.2l-0.2-2.9l0.7,2.8l0.8-0.2L175.7,108.3z M144.1,109.1L144.1,109.1c0.4,0.1,0.5,0.3,0.4,0.5
				s-0.3,0.4-0.6,0.3h0L144.1,109.1z M171.5,109.4l-0.8,0.2l0.5,2.2c0,0,0,0,0,0.1c0.1,0.5,0.1,0.7-0.1,0.8s-0.3-0.2-0.5-0.7
				l-0.4-2.3l-0.8,0.2l0.4,2c0.1,0.5,0.2,0.9,0.4,1.3c0.3,0.3,0.6,0.4,1,0.2c0.4,0,0.8-0.3,0.9-0.7c0.1-0.3,0.1-0.6,0-0.9l-0.1-0.3
				L171.5,109.4z M149.2,109.7c-0.3,0-0.6,0.1-0.8,0.3c-0.3,0.4-0.4,0.9-0.5,1.4c-0.1,0.5-0.2,1-0.1,1.5c0.2,0.4,0.5,0.6,0.9,0.7
				c0.8,0.1,1.3-0.2,1.4-1.1v-0.2l-0.8-0.2c0,0.1,0,0.1,0,0.2c-0.1,0.4-0.2,0.6-0.5,0.6c-0.3,0-0.3-0.4-0.1-1.3c0,0,0,0,0-0.1
				c0.1-0.8,0.2-1.1,0.6-1.1s0.3,0.3,0.2,0.7l0.8,0.2l0,0c0.2-0.9-0.2-1.4-0.9-1.5L149.2,109.7L149.2,109.7z M151.7,110.2l-0.4,3.7
				l0.9,0.1l0.2-1.5h0.2c0.3,0,0.4,0.2,0.3,0.6c0,0.1,0,0.2,0,0.4c0,0.2,0,0.3,0,0.5l1,0.1c-0.2-0.2-0.1-0.5-0.1-1s0.1-0.7-0.3-0.9
				c0.3-0.1,0.6-0.5,0.6-0.8c0.1-0.3,0-0.6-0.2-0.8c-0.3-0.2-0.6-0.3-1-0.3L151.7,110.2z M167.4,110.2l-0.9,0.1l0.5,3.6l1.9-0.2
				l-0.1-0.7l-1,0.1L167.4,110.2z M143.7,110.5L143.7,110.5c0.4,0.1,0.6,0.3,0.5,0.6s-0.3,0.4-0.7,0.3h-0.1L143.7,110.5z M155,110.5
				l-0.1,2c-0.1,0.4,0,0.9,0.1,1.3c0.4,0.6,1.3,0.7,1.8,0.2c0.1,0,0.1-0.1,0.2-0.1c0.1-0.3,0.2-0.6,0.2-0.9c0-0.1,0-0.2,0-0.3
				l0.1-2.1h-0.9l-0.1,2.3l0,0c0,0.5,0,0.7-0.3,0.7c-0.3,0-0.3-0.3-0.3-0.8l0.1-2.3L155,110.5z M163.8,110.5l-2,0.1l0.2,3.7l2-0.1
				v-0.8l-1.2,0.1v-0.8l1.1-0.1v-0.8l-1,0.1v-0.7h1.1L163.8,110.5z M159.5,110.6c-0.4,0-0.8,0.1-1,0.5c-0.3,0.9-0.3,2,0,2.9
				c0.2,0.3,0.6,0.5,1,0.5c0.8,0,1.2-0.4,1.2-1.3c0-0.1,0-0.1,0-0.2h-0.8v0.2c0,0.5-0.1,0.7-0.4,0.7s-0.4-0.4-0.3-1.2v-0.1
				c0-0.8,0-1.2,0.4-1.2s0.4,0.2,0.4,0.7h0.8l0,0C160.7,111,160.3,110.6,159.5,110.6L159.5,110.6z M152.5,110.8c0,0,0.1,0,0.1,0
				c0.3,0,0.5,0.2,0.4,0.5s-0.2,0.4-0.6,0.4h-0.1L152.5,110.8z"/>
		</g>
		<g id="g1139">
			<path id="path1141" class="st2" d="M158.8,88.9L158.8,88.9c-0.8-1-2.1-1.6-3.4-1.7l-1.2,0.1c-1.2,0.1-3,0.3-3.8,0.3h-1.7V71.9h-1
				v16.8h2.7c0.8,0,2.5-0.2,3.7-0.3l1.3-0.1C156.5,88.1,157.7,88.4,158.8,88.9L158.8,88.9"/>
		</g>
		<g id="g1143">
			<path id="path1145" class="st2" d="M169.7,71.9v15.8H168c-0.8,0-2.6-0.2-3.8-0.3l-1.2-0.1c-1.3,0-2.6,0.6-3.4,1.7l0,0V89
				c1-0.6,2.3-0.9,3.5-0.7l1.3,0.1c1.2,0.1,2.9,0.3,3.7,0.3h2.7V71.9H169.7"/>
		</g>
		<g id="g1147">
			<path id="path1149" class="st2" d="M155.4,86.2l-1.3,0.1c-1.2,0.1-2.9,0.3-3.7,0.3h-0.7V70.6c1.5,0.5,3.1,0.8,4.6,0.7
				c3.7,0,4.4,1.1,4.4,1.2l0.1,0.1v14.8C157.8,86.6,156.6,86.2,155.4,86.2"/>
		</g>
		<g id="g1151">
			<path id="path1153" class="st2" d="M168.7,86.6H168c-0.8,0-2.5-0.2-3.7-0.3l-1.3-0.1c-1.3,0-2.5,0.4-3.5,1.1V72.6l0.1-0.1
				c0,0,0.7-1.2,4.4-1.2c1.6,0.1,3.1-0.2,4.6-0.7L168.7,86.6"/>
		</g>
		<g id="g1155">
			<path id="path1157" d="M150.8,72.1v1.8c1.2,0.4,2.5,0.5,3.8,0.5c1.1,0,2.1,0.1,3.1,0.4v-0.5c-1-0.3-2.1-0.4-3.1-0.4
				c-1,0-2-0.1-2.9-0.3v-1.3C151.3,72.3,151.1,72.2,150.8,72.1z M161.7,72.6c-0.2,0-0.3,0.1-0.5,0.1c-0.1,0-0.3,0.1-0.4,0.1v2
				c1-0.3,2-0.4,3.1-0.4c1.3,0,2.6-0.1,3.8-0.5v-0.5c-1.2,0.4-2.5,0.5-3.8,0.5c-0.7,0-1.5,0.1-2.2,0.2V72.6z M150.8,75.6v0.5
				c1.3,0.2,2.6,0.3,3.9,0.3h0.9c0.7,0,1.4,0.1,2.1,0.4v-0.5c-0.7-0.2-1.4-0.3-2.1-0.3h-1C153.3,75.9,152,75.8,150.8,75.6
				L150.8,75.6z M167.7,75.6c-1.3,0.3-2.6,0.4-3.8,0.3h-1c-0.7,0-1.3,0.1-2,0.3v0.5c0.7-0.2,1.4-0.3,2.1-0.4h0.9
				c1.3,0,2.6-0.1,3.9-0.3L167.7,75.6z M150.8,77.7v0.5c1.3,0.1,2.6,0.2,3.9,0.1h0.8c0.7,0,1.5,0.1,2.1,0.4v-0.5
				c-0.7-0.2-1.4-0.3-2.1-0.4h-0.9C153.4,77.9,152.1,77.9,150.8,77.7L150.8,77.7z M167.7,77.8c-1.3,0.1-2.6,0.2-3.9,0.1h-0.9
				c-0.7,0-1.4,0.1-2.1,0.3v0.5c0.7-0.2,1.4-0.4,2.1-0.4h0.8c1.3,0.1,2.6,0,3.9-0.1V77.8z M155.5,79.9h-0.8c-1.3,0.1-2.7,0.1-4,0
				v0.5c1.3,0.1,2.7,0.1,4,0h0.7c0.7,0,1.5,0.1,2.2,0.4v-0.6C156.9,80,156.2,79.9,155.5,79.9L155.5,79.9z M162.9,80
				c-0.7,0-1.4,0.1-2.1,0.4v0.5c0.7-0.3,1.4-0.4,2.1-0.4h0.7c1.3,0.1,2.7,0.1,4,0V80c-1.3,0.1-2.7,0.1-4,0L162.9,80z M155.5,82h-0.7
				h-0.4c-1.1,0.1-2.7,0.2-3.6,0.2v0.5c1,0,2.5-0.1,3.6-0.2h0.4h0.6c0.8,0,1.5,0.1,2.2,0.4v-0.6C156.9,82.1,156.2,82,155.5,82
				L155.5,82z M163,82c-0.7,0-1.5,0.1-2.2,0.4V83c0.7-0.3,1.4-0.4,2.2-0.4h0.6h0.4c1.1,0.1,2.7,0.2,3.6,0.2v-0.5
				c-0.9,0-2.4-0.1-3.6-0.2h-0.4L163,82L163,82z M155.4,84l-1.2,0.1c-1,0.1-2.5,0.3-3.4,0.3V85c0.9,0,2.4-0.2,3.4-0.3l1.2-0.1
				c0.8,0,1.5,0.1,2.2,0.4v-0.6C156.9,84.2,156.2,84.1,155.4,84L155.4,84z M163,84.1c-0.8,0-1.5,0.1-2.2,0.4V85
				c0.7-0.3,1.5-0.4,2.2-0.4l1.2,0.1c1.1,0.1,2.6,0.3,3.5,0.3v-0.5c-0.9,0-2.4-0.2-3.4-0.3L163,84.1z"/>
		</g>
		<g id="g1203">
			<path id="path1205" class="st2" d="M155.4,89.3l-1.2,0.1c-1.2,0.1-3,0.3-3.8,0.3h-3.7v-16h-0.9v16.9h4.6c0.8,0,2.6-0.2,3.7-0.3
				l1.3-0.1c0.9-0.1,1.8-0.1,2.7,0v-0.1C157.3,89.6,156.3,89.2,155.4,89.3"/>
		</g>
		<g id="g1207">
			<path id="path1209" class="st2" d="M171.7,73.7v16H168c-0.8,0-2.6-0.2-3.8-0.3l-1.2-0.1c-1,0-2,0.3-2.8,1l0,0
				c0.9-0.2,1.9-0.3,2.8-0.1l1.3,0.1c1.2,0.1,2.9,0.3,3.7,0.3h4.6V73.7H171.7"/>
		</g>
		<g id="g1211">
			<path id="path1213" class="st2" d="M159.4,48.5l-1,1.4l-1.8-0.1l0.4,1.6l-1.2,1.3l1.6,0.7l0.3,1.7l1.6-0.8l1.5,0.8l0.3-1.7
				l1.7-0.7l-1.2-1.3l0.5-1.7l-1.8,0.1L159.4,48.5z M169,52.9l-1,1.4l-1.8-0.1l0.5,1.6l-1.2,1.3l1.6,0.7l0.3,1.7l1.6-0.8l1.5,0.8
				l0.3-1.7l1.7-0.7l-1.2-1.3l0.5-1.7l-1.8,0.1L169,52.9z M150.9,56.9l-1.3,1.3h-1.8V60l-1.3,1.3l1.3,1.3v1.8h1.8l1.3,1.3l1.3-1.3
				h1.9v-1.8l1.2-1.2l-1.2-1.2v-1.8h-1.9L150.9,56.9z M159.4,59.5l-0.8,1.2l-1.4,0.4l0.9,1.1v1.4l1.4-0.5l1.4,0.5v-1.4l0.9-1.1
				l-1.4-0.4L159.4,59.5z M165.4,61.2l-0.7,1.2h-1.7l0.8,1.4l-0.8,1.4h1.7l0.7,1.2l0.7-1.2h1.7l-0.8-1.4l0.8-1.4h-1.7L165.4,61.2z"
				/>
		</g>
		<g id="g1231">
			<path id="path1233" class="st4" d="M174.6,86.2v-6.9h0.4v-2.1h-0.4v-2.4h-1v16.9h-12.7l-0.2,0.1c-0.1,0.9-0.8,1.5-1.7,1.4
				c-0.8-0.1-1.4-0.7-1.4-1.5h-0.1h-12.7V74.8h-1v2.4h-0.4v2.1h0.4v6.9h-0.4v2.1h0.4v4.2h12.8c0.6,1.4,2.3,2.1,3.7,1.4
				c0.6-0.3,1.2-0.8,1.4-1.4h12.8v-4.2h0.4v-2.1H174.6"/>
		</g>
		<g id="g1235">
			<path id="path1237" class="st5" d="M136.1,68.6c0.1,16.9,7.9,28.8,23.1,35.4v-9.8l0,0c-1.1,0-2.1-0.7-2.6-1.7h-12.9v-4.2h-0.4
				v-2.1h0.4v-6.9h-0.4v-2.1h0.4v-2.4h1v-2h1.9v-1.9h2v-1.8l0.9,0.3c1.5,0.6,3.1,0.9,4.8,0.8c2.9,0,4.3,0.7,4.8,1.2h0.1v-2.9H136.1"
				/>
		</g>
	</g>
</g>
</svg>
